# xmcd CD database file
#
# Track frame offsets:
#	150
#	15475
#	31647
#	51035
#	66712
#	87680
#	103340
#	119417
#	133952
#	155857
#
# Disc length: 2288 seconds
#
# Revision: 0
# Processed by: cddbd v1.5PL3 Copyright (c) Steve Scherf et al.
# Submitted via: CDex 1.50
#
DISCID=9308ee0a
DTITLE=高橋美紀 - ドレスアップ
DYEAR=1987
DGENRE=JPop
TTITLE0=Fun Fun Fun!
TTITLE1=スプリング・ダイアリ−
TTITLE2=星のナビゲイトで
TTITLE3=夏色インスピレ−ション
TTITLE4=ステディ・ボ−イ
TTITLE5=不思議プラトニック
TTITLE6=Why
TTITLE7=白いエアメ−ル
TTITLE8=Moonlight
TTITLE9=今夜だけジョ−クはぬきで
EXTD=YEAR: 1987/04/20
EXTT0=
EXTT1=
EXTT2=
EXTT3=
EXTT4=
EXTT5=
EXTT6=
EXTT7=
EXTT8=
EXTT9=
PLAYORDER=
